<?xml version="1.0" encoding="UTF-8" standalone="no"?>
<svg
   width="460.8pt"
   height="345.6pt"
   viewBox="0 0 460.8 345.6"
   version="1.1"
   id="svg135"
   sodipodi:docname="stabilization.svg"
   inkscape:version="1.3.2 (091e20e, 2023-11-25, custom)"
   xmlns:inkscape="http://www.inkscape.org/namespaces/inkscape"
   xmlns:sodipodi="http://sodipodi.sourceforge.net/DTD/sodipodi-0.dtd"
   xmlns:xlink="http://www.w3.org/1999/xlink"
   xmlns="http://www.w3.org/2000/svg"
   xmlns:svg="http://www.w3.org/2000/svg"
   xmlns:rdf="http://www.w3.org/1999/02/22-rdf-syntax-ns#"
   xmlns:cc="http://creativecommons.org/ns#"
   xmlns:dc="http://purl.org/dc/elements/1.1/">
  <sodipodi:namedview
     id="namedview135"
     pagecolor="#ffffff"
     bordercolor="#000000"
     borderopacity="0.25"
     inkscape:showpageshadow="2"
     inkscape:pageopacity="0.0"
     inkscape:pagecheckerboard="0"
     inkscape:deskcolor="#d1d1d1"
     inkscape:document-units="pt"
     inkscape:zoom="1.2279996"
     inkscape:cx="243.07825"
     inkscape:cy="195.84697"
     inkscape:window-width="1920"
     inkscape:window-height="1017"
     inkscape:window-x="-8"
     inkscape:window-y="-8"
     inkscape:window-maximized="1"
     inkscape:current-layer="svg135" />
  <metadata
     id="metadata1">
    <rdf:RDF>
      <cc:Work>
        <dc:type
           rdf:resource="http://purl.org/dc/dcmitype/StillImage" />
        <dc:date>2025-03-13T13:51:28.535218</dc:date>
        <dc:format>image/svg+xml</dc:format>
        <dc:creator>
          <cc:Agent>
            <dc:title>Matplotlib v3.9.2, https://matplotlib.org/</dc:title>
          </cc:Agent>
        </dc:creator>
      </cc:Work>
    </rdf:RDF>
  </metadata>
  <defs
     id="defs1">
    <style
       type="text/css"
       id="style1">*{stroke-linejoin: round; stroke-linecap: butt}</style>
  </defs>
  <g
     id="matplotlib.axis_1"
     transform="translate(11.748982,-14.685361)">
    <g
       id="xtick_1">
      <g
         id="line2d_1">
        <defs
           id="defs2">
          <path
             id="mfc73516634"
             d="M 0,0 V 3.5"
             style="stroke:#000000;stroke-width:0.8" />
        </defs>
        <g
           id="g2">
          <use
             xlink:href="#mfc73516634"
             x="73.832726"
             y="307.58401"
             style="stroke:#000000;stroke-width:0.8"
             id="use2" />
        </g>
      </g>
      <g
         id="text_1">
        <!-- 0 -->
        <g
           transform="matrix(0.1,0,0,-0.1,70.651477,322.18244)"
           id="g3">
          <defs
             id="defs3">
            <path
               id="DejaVuSans-30"
               d="m 2034,4250 q -487,0 -733,-480 -245,-479 -245,-1442 0,-959 245,-1439 246,-480 733,-480 491,0 736,480 246,480 246,1439 0,963 -246,1442 -245,480 -736,480 z m 0,500 q 785,0 1199,-621 414,-620 414,-1801 0,-1178 -414,-1799 -414,-620 -1199,-620 -784,0 -1198,620 -414,621 -414,1799 0,1181 414,1801 414,621 1198,621 z"
               transform="scale(0.015625)" />
          </defs>
          <use
             xlink:href="#DejaVuSans-30"
             id="use3" />
        </g>
      </g>
    </g>
    <g
       id="xtick_2">
      <g
         id="line2d_2">
        <g
           id="g4">
          <use
             xlink:href="#mfc73516634"
             x="114.61848"
             y="307.58401"
             style="stroke:#000000;stroke-width:0.8"
             id="use4" />
        </g>
      </g>
      <g
         id="text_2">
        <!-- 25 -->
        <g
           transform="matrix(0.1,0,0,-0.1,108.25597,322.18244)"
           id="g6">
          <defs
             id="defs4">
            <path
               id="DejaVuSans-32"
               d="M 1228,531 H 3431 V 0 H 469 v 531 q 359,372 979,998 621,627 780,809 303,340 423,576 121,236 121,464 0,372 -261,606 -261,235 -680,235 -297,0 -627,-103 -329,-103 -704,-313 v 638 q 381,153 712,231 332,78 607,78 725,0 1156,-363 431,-362 431,-968 0,-288 -108,-546 -107,-257 -392,-607 -78,-91 -497,-524 Q 1991,1309 1228,531 Z"
               transform="scale(0.015625)" />
            <path
               id="DejaVuSans-35"
               d="M 691,4666 H 3169 V 4134 H 1269 V 2991 q 137,47 274,70 138,23 276,23 781,0 1237,-428 457,-428 457,-1159 Q 3513,744 3044,326 2575,-91 1722,-91 1428,-91 1123,-41 819,9 494,109 v 635 q 281,-153 581,-228 300,-75 634,-75 541,0 856,284 316,284 316,772 0,487 -316,771 -315,285 -856,285 -253,0 -505,-56 -251,-56 -513,-175 z"
               transform="scale(0.015625)" />
          </defs>
          <use
             xlink:href="#DejaVuSans-32"
             id="use5" />
          <use
             xlink:href="#DejaVuSans-35"
             x="63.623047"
             id="use6" />
        </g>
      </g>
    </g>
    <g
       id="xtick_3">
      <g
         id="line2d_3">
        <g
           id="g7">
          <use
             xlink:href="#mfc73516634"
             x="155.40422"
             y="307.58401"
             style="stroke:#000000;stroke-width:0.8"
             id="use7" />
        </g>
      </g>
      <g
         id="text_3">
        <!-- 50 -->
        <g
           transform="matrix(0.1,0,0,-0.1,149.04172,322.18244)"
           id="g9">
          <use
             xlink:href="#DejaVuSans-35"
             id="use8" />
          <use
             xlink:href="#DejaVuSans-30"
             x="63.623047"
             id="use9" />
        </g>
      </g>
    </g>
    <g
       id="xtick_4">
      <g
         id="line2d_4">
        <g
           id="g10">
          <use
             xlink:href="#mfc73516634"
             x="196.18997"
             y="307.58401"
             style="stroke:#000000;stroke-width:0.8"
             id="use10" />
        </g>
      </g>
      <g
         id="text_4">
        <!-- 75 -->
        <g
           transform="matrix(0.1,0,0,-0.1,189.82747,322.18244)"
           id="g12">
          <defs
             id="defs10">
            <path
               id="DejaVuSans-37"
               d="M 525,4666 H 3525 V 4397 L 1831,0 H 1172 L 2766,4134 H 525 Z"
               transform="scale(0.015625)" />
          </defs>
          <use
             xlink:href="#DejaVuSans-37"
             id="use11" />
          <use
             xlink:href="#DejaVuSans-35"
             x="63.623047"
             id="use12" />
        </g>
      </g>
    </g>
    <g
       id="xtick_5">
      <g
         id="line2d_5">
        <g
           id="g13">
          <use
             xlink:href="#mfc73516634"
             x="236.97571"
             y="307.58401"
             style="stroke:#000000;stroke-width:0.8"
             id="use13" />
        </g>
      </g>
      <g
         id="text_5">
        <!-- 100 -->
        <g
           transform="matrix(0.1,0,0,-0.1,227.43196,322.18244)"
           id="g16">
          <defs
             id="defs13">
            <path
               id="DejaVuSans-31"
               d="M 794,531 H 1825 V 4091 L 703,3866 v 575 l 1116,225 h 631 V 531 H 3481 V 0 H 794 Z"
               transform="scale(0.015625)" />
          </defs>
          <use
             xlink:href="#DejaVuSans-31"
             id="use14" />
          <use
             xlink:href="#DejaVuSans-30"
             x="63.623047"
             id="use15" />
          <use
             xlink:href="#DejaVuSans-30"
             x="127.24609"
             id="use16" />
        </g>
      </g>
    </g>
    <g
       id="xtick_6">
      <g
         id="line2d_6">
        <g
           id="g17">
          <use
             xlink:href="#mfc73516634"
             x="277.76147"
             y="307.58401"
             style="stroke:#000000;stroke-width:0.8"
             id="use17" />
        </g>
      </g>
      <g
         id="text_6">
        <!-- 125 -->
        <g
           transform="matrix(0.1,0,0,-0.1,268.21771,322.18244)"
           id="g20">
          <use
             xlink:href="#DejaVuSans-31"
             id="use18" />
          <use
             xlink:href="#DejaVuSans-32"
             x="63.623047"
             id="use19" />
          <use
             xlink:href="#DejaVuSans-35"
             x="127.24609"
             id="use20" />
        </g>
      </g>
    </g>
    <g
       id="xtick_7">
      <g
         id="line2d_7">
        <g
           id="g21">
          <use
             xlink:href="#mfc73516634"
             x="318.54721"
             y="307.58401"
             style="stroke:#000000;stroke-width:0.8"
             id="use21" />
        </g>
      </g>
      <g
         id="text_7">
        <!-- 150 -->
        <g
           transform="matrix(0.1,0,0,-0.1,309.00346,322.18244)"
           id="g24">
          <use
             xlink:href="#DejaVuSans-31"
             id="use22" />
          <use
             xlink:href="#DejaVuSans-35"
             x="63.623047"
             id="use23" />
          <use
             xlink:href="#DejaVuSans-30"
             x="127.24609"
             id="use24" />
        </g>
      </g>
    </g>
    <g
       id="xtick_8">
      <g
         id="line2d_8">
        <g
           id="g25">
          <use
             xlink:href="#mfc73516634"
             x="359.33295"
             y="307.58401"
             style="stroke:#000000;stroke-width:0.8"
             id="use25" />
        </g>
      </g>
      <g
         id="text_8">
        <!-- 175 -->
        <g
           transform="matrix(0.1,0,0,-0.1,349.78921,322.18244)"
           id="g28">
          <use
             xlink:href="#DejaVuSans-31"
             id="use26" />
          <use
             xlink:href="#DejaVuSans-37"
             x="63.623047"
             id="use27" />
          <use
             xlink:href="#DejaVuSans-35"
             x="127.24609"
             id="use28" />
        </g>
      </g>
    </g>
    <g
       id="xtick_9">
      <g
         id="line2d_9">
        <g
           id="g29">
          <use
             xlink:href="#mfc73516634"
             x="400.11871"
             y="307.58401"
             style="stroke:#000000;stroke-width:0.8"
             id="use29" />
        </g>
      </g>
      <g
         id="text_9">
        <!-- 200 -->
        <g
           transform="matrix(0.1,0,0,-0.1,390.57495,322.18244)"
           id="g32">
          <use
             xlink:href="#DejaVuSans-32"
             id="use30" />
          <use
             xlink:href="#DejaVuSans-30"
             x="63.623047"
             id="use31" />
          <use
             xlink:href="#DejaVuSans-30"
             x="127.24609"
             id="use32" />
        </g>
      </g>
    </g>
  </g>
  <g
     id="matplotlib.axis_2"
     transform="translate(11.748982,-14.685361)">
    <g
       id="ytick_1">
      <g
         id="line2d_10">
        <defs
           id="defs32">
          <path
             id="me2bee6202b"
             d="M 0,0 H -3.5"
             style="stroke:#000000;stroke-width:0.8" />
        </defs>
        <g
           id="g33">
          <use
             xlink:href="#me2bee6202b"
             x="57.599998"
             y="295.48801"
             style="stroke:#000000;stroke-width:0.8"
             id="use33" />
        </g>
      </g>
      <g
         id="text_10">
        <!-- 0 -->
        <g
           transform="matrix(0.1,0,0,-0.1,44.2375,299.28722)"
           id="g34">
          <use
             xlink:href="#DejaVuSans-30"
             id="use34" />
        </g>
      </g>
    </g>
    <g
       id="ytick_2">
      <g
         id="line2d_11">
        <g
           id="g35">
          <use
             xlink:href="#me2bee6202b"
             x="57.599998"
             y="247.104"
             style="stroke:#000000;stroke-width:0.8"
             id="use35" />
        </g>
      </g>
      <g
         id="text_11">
        <!-- 10 -->
        <g
           transform="matrix(0.1,0,0,-0.1,37.875,250.90322)"
           id="g37">
          <use
             xlink:href="#DejaVuSans-31"
             id="use36" />
          <use
             xlink:href="#DejaVuSans-30"
             x="63.623047"
             id="use37" />
        </g>
      </g>
    </g>
    <g
       id="ytick_3">
      <g
         id="line2d_12">
        <g
           id="g38">
          <use
             xlink:href="#me2bee6202b"
             x="57.599998"
             y="198.72"
             style="stroke:#000000;stroke-width:0.8"
             id="use38" />
        </g>
      </g>
      <g
         id="text_12">
        <!-- 20 -->
        <g
           transform="matrix(0.1,0,0,-0.1,37.875,202.51922)"
           id="g40">
          <use
             xlink:href="#DejaVuSans-32"
             id="use39" />
          <use
             xlink:href="#DejaVuSans-30"
             x="63.623047"
             id="use40" />
        </g>
      </g>
    </g>
    <g
       id="ytick_4">
      <g
         id="line2d_13">
        <g
           id="g41">
          <use
             xlink:href="#me2bee6202b"
             x="57.599998"
             y="150.336"
             style="stroke:#000000;stroke-width:0.8"
             id="use41" />
        </g>
      </g>
      <g
         id="text_13">
        <!-- 30 -->
        <g
           transform="matrix(0.1,0,0,-0.1,37.875,154.13522)"
           id="g43">
          <defs
             id="defs41">
            <path
               id="DejaVuSans-33"
               d="m 2597,2516 q 453,-97 707,-404 255,-306 255,-756 0,-690 -475,-1069 -475,-378 -1350,-378 -293,0 -604,58 -311,58 -642,174 v 609 q 262,-153 574,-231 313,-78 654,-78 593,0 904,234 311,234 311,681 0,413 -289,645 -289,233 -804,233 h -544 v 519 h 569 q 465,0 712,186 247,186 247,536 0,359 -255,551 -254,193 -729,193 -260,0 -557,-57 -297,-56 -653,-174 v 562 q 360,100 674,150 314,50 592,50 719,0 1137,-327 419,-326 419,-882 0,-388 -222,-655 -222,-267 -631,-370 z"
               transform="scale(0.015625)" />
          </defs>
          <use
             xlink:href="#DejaVuSans-33"
             id="use42" />
          <use
             xlink:href="#DejaVuSans-30"
             x="63.623047"
             id="use43" />
        </g>
      </g>
    </g>
    <g
       id="ytick_5">
      <g
         id="line2d_14">
        <g
           id="g44">
          <use
             xlink:href="#me2bee6202b"
             x="57.599998"
             y="101.952"
             style="stroke:#000000;stroke-width:0.8"
             id="use44" />
        </g>
      </g>
      <g
         id="text_14">
        <!-- 40 -->
        <g
           transform="matrix(0.1,0,0,-0.1,37.875,105.75122)"
           id="g46">
          <defs
             id="defs44">
            <path
               id="DejaVuSans-34"
               d="M 2419,4116 825,1625 h 1594 z m -166,550 h 794 V 1625 h 666 V 1100 H 3047 V 0 H 2419 V 1100 H 313 v 609 z"
               transform="scale(0.015625)" />
          </defs>
          <use
             xlink:href="#DejaVuSans-34"
             id="use45" />
          <use
             xlink:href="#DejaVuSans-30"
             x="63.623047"
             id="use46" />
        </g>
      </g>
    </g>
    <g
       id="ytick_6">
      <g
         id="line2d_15">
        <g
           id="g47">
          <use
             xlink:href="#me2bee6202b"
             x="57.599998"
             y="53.568001"
             style="stroke:#000000;stroke-width:0.8"
             id="use47" />
        </g>
      </g>
      <g
         id="text_15">
        <!-- 50 -->
        <g
           transform="matrix(0.1,0,0,-0.1,37.875,57.367219)"
           id="g49">
          <use
             xlink:href="#DejaVuSans-35"
             id="use48" />
          <use
             xlink:href="#DejaVuSans-30"
             x="63.623047"
             id="use49" />
        </g>
      </g>
    </g>
  </g>
  <g
     id="line2d_16"
     transform="translate(11.748982,-14.685361)">
    <path
       d="m 73.832727,213.2352 1.63143,-53.2224 1.63143,-33.8688 1.63143,-24.192 1.63143,-19.3536 1.63143,-9.6768 4.894289,-14.5152 h 3.26286 l 1.63143,-4.8384 H 398.48727 v 0"
       clip-path="url(#pf667071e66)"
       style="fill:none;stroke:#1f77b4;stroke-width:1.5;stroke-linecap:square"
       id="path49" />
  </g>
  <g
     id="line2d_17"
     transform="translate(11.748982,-14.685361)">
    <path
       d="m 73.832727,295.488 4.89429,-87.0912 1.63143,-19.3536 1.63143,-24.192 1.63143,9.6768 1.631429,-9.6768 1.63143,14.5152 1.63143,-14.5152 1.63143,14.5152 1.63143,-14.5152 1.63143,14.5152 1.63143,-9.6768 1.63143,9.6768 1.631429,-9.6768 1.63143,9.6768 1.631435,-9.6768 1.63143,9.6768 1.63142,-9.6768 1.63144,9.6768 1.63142,-9.6768 1.63144,9.6768 1.63142,-9.6768 1.63143,9.6768 1.63143,-9.6768 1.63143,9.6768 1.63143,-9.6768 1.63143,9.6768 1.63143,-9.6768 1.63143,9.6768 1.63143,-9.6768 1.63143,9.6768 1.63143,-9.6768 1.63143,9.6768 1.63143,-9.6768 1.63143,9.6768 1.63143,-9.6768 1.63143,9.6768 1.63143,-9.6768 1.63143,9.6768 1.63143,-9.6768 1.63143,9.6768 1.63143,-9.6768 1.63143,9.6768 1.63143,-9.6768 1.63143,9.6768 1.63143,-9.6768 1.63143,9.6768 1.63143,-9.6768 1.63143,9.6768 1.63143,-9.6768 1.63143,9.6768 1.63143,-9.6768 1.63143,9.6768 1.63143,-9.6768 1.63143,9.6768 1.63143,-9.6768 1.63143,9.6768 1.63143,-9.6768 1.63143,9.6768 1.63143,-9.6768 1.63143,9.6768 1.63143,-9.6768 1.63143,9.6768 1.63143,-9.6768 1.63143,9.6768 1.63143,-9.6768 1.63143,9.6768 1.63143,-9.6768 1.63143,9.6768 1.63143,-9.6768 1.63143,9.6768 1.63143,-9.6768 1.63143,9.6768 1.63143,-9.6768 1.63143,9.6768 1.63143,-9.6768 1.63143,9.6768 1.63143,-9.6768 1.63143,9.6768 1.63143,-9.6768 1.63143,9.6768 1.63143,-9.6768 1.63143,9.6768 1.63143,-9.6768 1.63143,9.6768 1.63143,-9.6768 1.63143,9.6768 1.63143,-9.6768 1.63143,9.6768 1.63143,-9.6768 1.63143,9.6768 1.63143,-9.6768 1.63143,9.6768 1.63143,-9.6768 1.63142,9.6768 1.63143,-9.6768 1.63143,9.6768 1.63144,-9.6768 1.63142,9.6768 1.63143,-9.6768 1.63143,9.6768 1.63143,-9.6768 1.63143,9.6768 1.63143,-9.6768 1.63143,9.6768 1.63143,-9.6768 1.63143,9.6768 1.63143,-9.6768 1.63143,9.6768 1.63143,-9.6768 1.63143,9.6768 1.63143,-9.6768 1.63143,9.6768 1.63143,-9.6768 1.63143,9.6768 1.63143,-9.6768 1.63143,9.6768 1.63143,-9.6768 1.63143,9.6768 1.63143,-9.6768 1.63143,9.6768 1.63143,-9.6768 1.63143,9.6768 1.63143,-9.6768 1.63143,9.6768 1.63143,-9.6768 1.63143,9.6768 1.63143,-9.6768 1.63143,9.6768 1.63143,-9.6768 1.63143,9.6768 1.63143,-9.6768 1.63143,9.6768 1.63143,-9.6768 1.63143,9.6768 1.63143,-9.6768 1.63143,9.6768 1.63143,-9.6768 1.63143,9.6768 1.63143,-9.6768 1.63143,9.6768 1.63143,-9.6768 1.63143,9.6768 1.63143,-9.6768 1.63143,9.6768 1.63143,-9.6768 1.63143,9.6768 1.63143,-9.6768 1.63143,9.6768 1.63143,-9.6768 1.63143,9.6768 1.63143,-9.6768 1.63143,9.6768 1.63143,-9.6768 1.63143,9.6768 1.63143,-9.6768 1.63143,9.6768 1.63143,-9.6768 1.63143,9.6768 1.63143,-9.6768 1.63143,9.6768 1.63143,-9.6768 1.63143,9.6768 1.63143,-9.6768 1.63143,9.6768 1.63143,-9.6768 1.63143,9.6768 1.63143,-9.6768 1.63143,9.6768 1.63143,-9.6768 1.63143,9.6768 1.63143,-9.6768 1.63143,9.6768 1.63143,-9.6768 1.63143,9.6768 1.63143,-9.6768 1.63142,9.6768 1.63143,-9.6768 1.63144,9.6768 1.63142,-9.6768 1.63144,9.6768 1.63142,-9.6768 1.63143,9.6768 1.63143,-9.6768 1.63143,9.6768 1.63143,-9.6768 1.63143,9.6768 1.63143,-9.6768 1.63143,9.6768 1.63143,-9.6768 1.63143,9.6768 1.63143,-9.6768 1.63143,9.6768 1.63143,-9.6768 1.63143,9.6768 1.63143,-9.6768 1.63143,9.6768 1.63143,-9.6768 v 0"
       clip-path="url(#pf667071e66)"
       style="fill:none;stroke:#ff7f0e;stroke-width:1.5;stroke-linecap:square"
       id="path50" />
  </g>
  <g
     id="line2d_18"
     transform="translate(11.748982,-14.685361)">
    <path
       d="m 73.832727,295.488 1.63143,-9.6768 1.63143,-14.5152 1.63143,-19.3536 3.26286,-29.0304 4.894289,-14.5152 1.63143,4.8384 1.63143,-4.8384 h 1.63143 l 1.63143,-4.8384 h 1.63143 l 1.63143,4.8384 h 8.157144 l 1.63144,4.8384 1.63142,-4.8384 h 1.63144 l 1.63142,-4.8384 h 1.63143 l 1.63143,4.8384 1.63143,-4.8384 1.63143,4.8384 h 4.89429 l 1.63143,4.8384 1.63143,-4.8384 h 1.63143 l 1.63143,-4.8384 h 1.63143 l 1.63143,4.8384 1.63143,-4.8384 1.63143,4.8384 h 4.89429 l 1.63143,4.8384 1.63143,-4.8384 h 1.63143 l 1.63143,-4.8384 h 1.63143 l 1.63143,4.8384 1.63143,-4.8384 1.63143,4.8384 h 4.89429 l 1.63143,4.8384 1.63143,-4.8384 h 1.63143 l 1.63143,-4.8384 h 1.63143 l 1.63143,4.8384 1.63143,-4.8384 1.63143,4.8384 h 4.89429 l 1.63143,4.8384 1.63143,-4.8384 h 1.63143 l 1.63143,-4.8384 h 1.63143 l 1.63143,4.8384 1.63143,-4.8384 1.63143,4.8384 h 4.89429 l 1.63143,4.8384 1.63143,-4.8384 h 1.63143 l 1.63143,-4.8384 h 1.63143 l 1.63143,4.8384 1.63143,-4.8384 1.63143,4.8384 h 4.89429 l 1.63143,4.8384 1.63143,-4.8384 h 1.63143 l 1.63143,-4.8384 h 1.63143 l 1.63143,4.8384 1.63143,-4.8384 1.63143,4.8384 h 4.89428 l 1.63143,4.8384 1.63143,-4.8384 h 1.63144 l 1.63142,-4.8384 h 1.63143 l 1.63143,4.8384 1.63143,-4.8384 1.63143,4.8384 h 4.89429 l 1.63143,4.8384 1.63143,-4.8384 h 1.63143 l 1.63143,-4.8384 h 1.63143 l 1.63143,4.8384 1.63143,-4.8384 1.63143,4.8384 h 4.89429 l 1.63143,4.8384 1.63143,-4.8384 h 1.63143 l 1.63143,-4.8384 h 1.63143 l 1.63143,4.8384 1.63143,-4.8384 1.63143,4.8384 h 4.89429 l 1.63143,4.8384 1.63143,-4.8384 h 1.63143 l 1.63143,-4.8384 h 1.63143 l 1.63143,4.8384 1.63143,-4.8384 1.63143,4.8384 h 4.89429 l 1.63143,4.8384 1.63143,-4.8384 h 1.63143 l 1.63143,-4.8384 h 1.63143 l 1.63143,4.8384 1.63143,-4.8384 1.63143,4.8384 h 4.89429 l 1.63143,4.8384 1.63143,-4.8384 h 1.63143 l 1.63143,-4.8384 h 1.63143 l 1.63143,4.8384 1.63143,-4.8384 1.63143,4.8384 h 4.89429 l 1.63143,4.8384 1.63143,-4.8384 h 1.63143 l 1.63143,-4.8384 h 1.63143 l 1.63143,4.8384 1.63143,-4.8384 1.63143,4.8384 h 4.89429 l 1.63143,4.8384 1.63143,-4.8384 h 1.63143 l 1.63143,-4.8384 h 1.63142 l 1.63143,4.8384 1.63144,-4.8384 1.63142,4.8384 h 4.89429 l 1.63143,4.8384 1.63143,-4.8384 h 1.63143 l 1.63143,-4.8384 h 1.63143 l 1.63143,4.8384 1.63143,-4.8384 1.63143,4.8384 h 4.89429 l 1.63143,4.8384 1.63143,-4.8384 h 1.63143 l 1.63143,-4.8384 v 0"
       clip-path="url(#pf667071e66)"
       style="fill:none;stroke:#2ca02c;stroke-width:1.5;stroke-linecap:square"
       id="path51" />
  </g>
  <g
     id="line2d_19"
     transform="translate(11.748982,-14.685361)">
    <path
       d="m 73.832727,295.488 3.26286,-9.6768 4.89429,-29.0304 1.63143,-4.8384 1.631429,-9.6768 1.63143,-4.8384 h 1.63143 l 1.63143,-4.8384 h 4.89429 l 1.63143,-4.8384 h 26.102874 l 1.63143,-4.8384 1.63143,4.8384 h 8.15715 l 1.63143,-4.8384 1.63143,4.8384 h 6.52572 l 1.63143,-4.8384 h 1.63143 l 1.63143,4.8384 h 6.52572 l 1.63143,-4.8384 h 1.63143 l 1.63143,4.8384 h 6.52572 l 1.63143,-4.8384 h 1.63143 l 1.63143,4.8384 h 6.52572 l 1.63143,-4.8384 h 1.63143 l 1.63143,4.8384 h 6.52572 l 1.63143,-4.8384 h 1.63143 l 1.63143,4.8384 h 6.52572 l 1.63143,-4.8384 h 1.63143 l 1.63143,4.8384 h 6.52572 l 1.63143,-4.8384 h 1.63143 l 1.63143,4.8384 h 6.52572 l 1.63143,-4.8384 h 1.63143 l 1.63143,4.8384 h 6.52572 l 1.63142,-4.8384 h 1.63143 l 1.63143,4.8384 h 6.52572 l 1.63143,-4.8384 h 1.63143 l 1.63143,4.8384 h 6.52572 l 1.63143,-4.8384 h 1.63143 l 1.63143,4.8384 h 6.52572 l 1.63143,-4.8384 h 1.63143 l 1.63143,4.8384 h 6.52572 l 1.63143,-4.8384 h 1.63143 l 1.63143,4.8384 h 6.52572 l 1.63143,-4.8384 h 1.63143 l 1.63143,4.8384 h 6.52572 l 1.63143,-4.8384 h 1.63143 l 1.63143,4.8384 h 6.52572 l 1.63143,-4.8384 h 1.63143 l 1.63143,4.8384 h 6.52572 l 1.63143,-4.8384 h 1.63143 l 1.63143,4.8384 h 6.52572 l 1.63143,-4.8384 h 1.63143 l 1.63143,4.8384 h 6.52572 l 1.63143,-4.8384 h 1.63143 l 1.63143,4.8384 h 6.52572 l 1.63143,-4.8384 h 1.63142 l 1.63143,4.8384 h 6.52572 l 1.63143,-4.8384 h 1.63143 l 1.63143,4.8384 h 6.52572 l 1.63143,-4.8384 h 1.63143 l 1.63143,4.8384 h 6.52572 l 1.63143,-4.8384 h 1.63143 v 0"
       clip-path="url(#pf667071e66)"
       style="fill:none;stroke:#d62728;stroke-width:1.5;stroke-linecap:square"
       id="path52" />
  </g>
  <g
     id="line2d_20"
     transform="translate(11.748982,-14.685361)">
    <path
       d="m 73.832727,295.488 h 3.26286 l 1.63143,-4.8384 h 1.63143 l 11.420009,-33.8688 h 1.63143 l 1.63143,-4.8384 h 1.63143 l 1.631429,-4.8384 h 3.262865 l 1.63143,-4.8384 h 19.57715 l 1.63143,-4.8384 h 3.26286 l 1.63143,4.8384 1.63143,-4.8384 h 4.89429 l 1.63143,4.8384 1.63143,-4.8384 h 1.63143 l 1.63143,4.8384 h 1.63143 l 1.63143,-4.8384 h 3.26286 l 1.63143,4.8384 1.63143,-4.8384 h 3.26286 l 1.63143,4.8384 h 3.26286 l 1.63143,-4.8384 1.63143,4.8384 h 1.63143 l 1.63143,-4.8384 h 3.26286 l 1.63143,4.8384 1.63143,-4.8384 h 3.26286 l 1.63143,4.8384 h 3.26286 l 1.63143,-4.8384 1.63143,4.8384 h 1.63143 l 1.63143,-4.8384 h 3.26286 l 1.63143,4.8384 1.63143,-4.8384 h 3.26286 l 1.63143,4.8384 h 3.26286 l 1.63143,-4.8384 1.63143,4.8384 h 1.63143 l 1.63143,-4.8384 h 3.26286 l 1.63143,4.8384 1.63143,-4.8384 h 3.26286 l 1.63143,4.8384 h 3.26286 l 1.63143,-4.8384 1.63143,4.8384 h 1.63143 l 1.63142,-4.8384 h 3.26286 l 1.63144,4.8384 1.63142,-4.8384 h 3.26286 l 1.63143,4.8384 h 3.26286 l 1.63143,-4.8384 1.63143,4.8384 h 1.63143 l 1.63143,-4.8384 h 3.26286 l 1.63143,4.8384 1.63143,-4.8384 h 3.26286 l 1.63143,4.8384 h 3.26286 l 1.63143,-4.8384 1.63143,4.8384 h 1.63143 l 1.63143,-4.8384 h 3.26286 l 1.63143,4.8384 1.63143,-4.8384 h 3.26286 l 1.63143,4.8384 h 3.26286 l 1.63143,-4.8384 1.63143,4.8384 h 1.63143 l 1.63143,-4.8384 h 3.26286 l 1.63143,4.8384 1.63143,-4.8384 h 3.26286 l 1.63143,4.8384 h 3.26286 l 1.63143,-4.8384 1.63143,4.8384 h 1.63143 l 1.63143,-4.8384 h 3.26286 l 1.63143,4.8384 1.63143,-4.8384 h 3.26286 l 1.63143,4.8384 h 3.26286 l 1.63143,-4.8384 1.63143,4.8384 h 1.63143 l 1.63143,-4.8384 h 3.26286 l 1.63143,4.8384 1.63143,-4.8384 h 3.26286 l 1.63143,4.8384 h 3.26286 l 1.63143,-4.8384 1.63143,4.8384 h 1.63143 l 1.63143,-4.8384 h 3.26286 l 1.63143,4.8384 1.63142,-4.8384 h 3.26287 l 1.63142,4.8384 h 3.26286 l 1.63143,-4.8384 1.63143,4.8384 h 1.63143 l 1.63143,-4.8384 h 3.26286 l 1.63143,4.8384 1.63143,-4.8384 h 3.26286 l 1.63143,4.8384 h 3.26286 l 1.63143,-4.8384 1.63143,4.8384 h 1.63143 v 0"
       clip-path="url(#pf667071e66)"
       style="fill:none;stroke:#9467bd;stroke-width:1.5;stroke-linecap:square"
       id="path53" />
  </g>
  <g
     id="line2d_21"
     transform="translate(11.748982,-14.685361)">
    <path
       d="m 73.832727,295.488 h 3.26286 l 1.63143,-4.8384 h 3.26286 l 1.63143,-4.8384 h 1.631429 l 1.63143,-4.8384 h 1.63143 l 4.89429,-14.5152 h 3.26286 l 1.631429,-4.8384 h 1.63143 l 1.631435,-4.8384 h 6.52571 l 1.63144,-4.8384 h 19.57715 l 1.63143,-4.8384 1.63143,4.8384 h 1.63143 l 1.63143,-4.8384 h 4.89429 l 1.63143,4.8384 1.63143,-4.8384 h 4.89429 l 1.63143,4.8384 1.63143,-4.8384 h 4.89429 l 1.63143,4.8384 1.63143,-4.8384 h 4.89429 l 1.63143,4.8384 1.63143,-4.8384 h 230.03161 v 0"
       clip-path="url(#pf667071e66)"
       style="fill:none;stroke:#8c564b;stroke-width:1.5;stroke-linecap:square"
       id="path54" />
  </g>
  <g
     id="line2d_22"
     transform="translate(11.748982,-14.685361)">
    <path
       d="m 73.832727,295.488 h 3.26286 l 1.63143,-4.8384 h 6.525719 l 1.63143,-4.8384 h 3.26286 l 1.63143,-4.8384 h 1.63143 l 1.63143,-4.8384 h 1.63143 l 1.631429,-4.8384 h 3.262865 l 1.63143,-4.8384 h 4.89428 l 1.63144,-4.8384 h 9.78857 l 1.63143,-4.8384 h 45.68004 l 1.63143,-4.8384 1.63143,4.8384 h 4.89429 l 1.63143,-4.8384 h 1.63143 l 1.63143,4.8384 h 4.89429 l 1.63143,-4.8384 h 1.63143 l 1.63143,4.8384 h 4.89429 l 1.63143,-4.8384 h 1.63143 l 1.63143,4.8384 h 4.89429 l 1.63143,-4.8384 h 1.63143 l 1.63143,4.8384 h 4.89429 l 1.63143,-4.8384 h 1.63143 l 1.63143,4.8384 h 4.89429 l 1.63143,-4.8384 h 1.63143 l 1.63143,4.8384 h 4.89428 l 1.63144,-4.8384 h 1.63142 l 1.63143,4.8384 h 4.89429 l 1.63143,-4.8384 h 1.63143 l 1.63143,4.8384 h 4.89429 l 1.63143,-4.8384 h 1.63143 l 1.63143,4.8384 h 4.89429 l 1.63143,-4.8384 h 1.63143 l 1.63143,4.8384 h 4.89429 l 1.63143,-4.8384 h 1.63143 l 1.63143,4.8384 h 4.89429 l 1.63143,-4.8384 h 1.63143 l 1.63143,4.8384 h 4.89429 l 1.63143,-4.8384 h 1.63143 l 1.63143,4.8384 h 4.89429 l 1.63143,-4.8384 h 1.63143 l 1.63143,4.8384 h 4.89429 l 1.63143,-4.8384 h 1.63143 l 1.63143,4.8384 h 4.89429 l 1.63143,-4.8384 h 1.63143 l 1.63143,4.8384 h 4.89429 l 1.63143,-4.8384 h 1.63143 l 1.63143,4.8384 h 4.89429 l 1.63143,-4.8384 h 1.63143 l 1.63143,4.8384 h 4.89429 l 1.63143,-4.8384 h 1.63143 l 1.63143,4.8384 h 4.89429 l 1.63143,-4.8384 h 1.63142 l 1.63143,4.8384 h 4.8943 l 1.63142,-4.8384 h 1.63143 l 1.63143,4.8384 h 4.89429 l 1.63143,-4.8384 h 1.63143 l 1.63143,4.8384 h 4.89429 l 1.63143,-4.8384 h 1.63143 l 1.63143,4.8384 h 3.26286 v 0"
       clip-path="url(#pf667071e66)"
       style="fill:none;stroke:#e377c2;stroke-width:1.5;stroke-linecap:square"
       id="path55" />
  </g>
  <g
     id="line2d_23"
     transform="translate(11.748982,-14.685361)">
    <path
       d="m 73.832727,295.488 h 4.89429 l 1.63143,-4.8384 h 9.788579 l 1.63143,-4.8384 h 4.89429 l 1.631429,-4.8384 h 3.262865 l 1.63143,-4.8384 h 4.89428 l 1.63144,-4.8384 h 8.15714 l 1.63143,-4.8384 h 11.42001 l 1.63143,-4.8384 h 58.73148 l 1.63143,-4.8384 h 3.26286 l 1.63143,4.8384 h 6.52572 l 1.63143,-4.8384 1.63143,4.8384 h 8.15715 l 1.63143,-4.8384 1.63143,4.8384 h 8.15715 l 1.63143,-4.8384 1.63142,4.8384 h 8.15715 l 1.63143,-4.8384 1.63143,4.8384 h 8.15715 l 1.63143,-4.8384 1.63143,4.8384 h 8.15715 l 1.63143,-4.8384 1.63143,4.8384 h 8.15715 l 1.63143,-4.8384 1.63143,4.8384 h 8.15715 l 1.63143,-4.8384 1.63143,4.8384 h 8.15715 l 1.63143,-4.8384 1.63143,4.8384 h 8.15715 l 1.63143,-4.8384 1.63143,4.8384 h 8.15715 l 1.63143,-4.8384 1.63143,4.8384 h 8.15715 l 1.63143,-4.8384 1.63143,4.8384 h 8.15715 l 1.63143,-4.8384 1.63143,4.8384 h 8.15715 l 1.63143,-4.8384 1.63143,4.8384 h 8.15714 l 1.63143,-4.8384 1.63144,4.8384 h 8.15714 l 1.63143,-4.8384 1.63143,4.8384 h 8.15715 l 1.63143,-4.8384 1.63143,4.8384 h 8.15715 v 0"
       clip-path="url(#pf667071e66)"
       style="fill:none;stroke:#7f7f7f;stroke-width:1.5;stroke-linecap:square"
       id="path56" />
  </g>
  <g
     id="line2d_24"
     transform="translate(11.748982,-14.685361)">
    <path
       d="m 73.832727,295.488 h 4.89429 l 1.63143,-4.8384 h 14.682869 l 1.63143,-4.8384 h 4.894294 l 1.63143,-4.8384 h 6.52572 l 1.63142,-4.8384 h 9.78858 l 1.63143,-4.8384 h 13.05144 l 1.63143,-4.8384 h 39.15432 l 1.63143,-4.8384 1.63143,4.8384 h 1.63143 l 1.63143,-4.8384 h 8.15715 l 1.63143,4.8384 1.63143,-4.8384 h 203.92873 v 0"
       clip-path="url(#pf667071e66)"
       style="fill:none;stroke:#bcbd22;stroke-width:1.5;stroke-linecap:square"
       id="path57" />
  </g>
  <g
     id="line2d_25"
     transform="translate(11.748982,-14.685361)">
    <path
       d="m 73.832727,295.488 h 6.52572 l 1.63143,-4.8384 h 19.577163 l 1.63143,-4.8384 h 8.15714 l 1.63143,-4.8384 h 9.78858 l 1.63143,-4.8384 h 13.05144 l 1.63143,-4.8384 h 30.99717 l 1.63143,-4.8384 h 226.76875 v 0"
       clip-path="url(#pf667071e66)"
       style="fill:none;stroke:#17becf;stroke-width:1.5;stroke-linecap:square"
       id="path58" />
  </g>
  <g
     id="patch_3"
     transform="translate(11.748982,-14.685361)">
    <path
       d="M 57.6,307.584 V 41.472"
       style="fill:none;stroke:#000000;stroke-width:0.8;stroke-linecap:square;stroke-linejoin:miter"
       id="path59" />
  </g>
  <g
     id="patch_4"
     transform="translate(11.748982,-14.685361)">
    <path
       d="M 414.72,307.584 V 41.472"
       style="fill:none;stroke:#000000;stroke-width:0.8;stroke-linecap:square;stroke-linejoin:miter"
       id="path60" />
  </g>
  <g
     id="patch_5"
     transform="translate(11.748982,-14.685361)">
    <path
       d="M 57.6,307.584 H 414.72"
       style="fill:none;stroke:#000000;stroke-width:0.8;stroke-linecap:square;stroke-linejoin:miter"
       id="path61" />
  </g>
  <g
     id="patch_6"
     transform="translate(11.748982,-14.685361)">
    <path
       d="M 57.6,41.472 H 414.72"
       style="fill:none;stroke:#000000;stroke-width:0.8;stroke-linecap:square;stroke-linejoin:miter"
       id="path62" />
  </g>
  <g
     id="legend_1"
     transform="matrix(0.66315495,0,0,0.66315495,313.96006,14.663165)">
    <g
       id="patch_7">
      <path
         d="m 64.6,196.25325 h 74.74062 q 2,0 2,-2 V 48.472 q 0,-2 -2,-2 H 64.6 q -2,0 -2,2 v 145.78125 q 0,2 2,2 z"
         style="opacity:0.8;fill:#ffffff;stroke:#cccccc;stroke-linejoin:miter"
         id="path63" />
    </g>
    <g
       id="line2d_26">
      <path
         d="m 66.6,54.570437 h 10 10"
         style="fill:none;stroke:#1f77b4;stroke-width:1.5;stroke-linecap:square"
         id="path64" />
    </g>
    <g
       id="text_16">
      <!-- 2 pipes -->
      <g
         transform="matrix(0.1,0,0,-0.1,94.6,58.070437)"
         id="g70">
        <defs
           id="defs64">
          <path
             id="DejaVuSans-20"
             transform="scale(0.015625)"
             d="" />
          <path
             id="DejaVuSans-70"
             d="M 1159,525 V -1331 H 581 v 4831 h 578 v -531 q 182,312 458,463 277,152 661,152 638,0 1036,-506 399,-506 399,-1331 0,-825 -399,-1332 -398,-506 -1036,-506 -384,0 -661,152 -276,152 -458,464 z m 1957,1222 q 0,634 -261,995 -261,361 -717,361 -457,0 -718,-361 -261,-361 -261,-995 0,-634 261,-995 261,-361 718,-361 456,0 717,361 261,361 261,995 z"
             transform="scale(0.015625)" />
          <path
             id="DejaVuSans-69"
             d="m 603,3500 h 575 V 0 H 603 Z m 0,1363 h 575 V 4134 H 603 Z"
             transform="scale(0.015625)" />
          <path
             id="DejaVuSans-65"
             d="M 3597,1894 V 1613 H 953 q 38,-594 358,-905 320,-311 892,-311 331,0 642,81 311,81 618,244 V 178 Q 3153,47 2828,-22 2503,-91 2169,-91 1331,-91 842,396 353,884 353,1716 q 0,859 464,1363 464,505 1252,505 706,0 1117,-455 411,-454 411,-1235 z m -575,169 q -6,471 -264,752 -258,282 -683,282 -481,0 -770,-272 -289,-272 -333,-766 z"
             transform="scale(0.015625)" />
          <path
             id="DejaVuSans-73"
             d="m 2834,3397 v -544 q -243,125 -506,187 -262,63 -544,63 -428,0 -642,-131 -214,-131 -214,-394 0,-200 153,-314 153,-114 616,-217 l 197,-44 q 612,-131 870,-370 258,-239 258,-667 0,-488 -386,-773 Q 2250,-91 1575,-91 1294,-91 989,-36 684,19 347,128 v 594 q 319,-166 628,-249 309,-82 613,-82 406,0 624,139 219,139 219,392 0,234 -158,359 -157,125 -692,241 l -200,47 q -534,112 -772,345 -237,233 -237,639 0,494 350,762 350,269 994,269 318,0 599,-47 282,-46 519,-140 z"
             transform="scale(0.015625)" />
        </defs>
        <use
           xlink:href="#DejaVuSans-32"
           id="use64" />
        <use
           xlink:href="#DejaVuSans-20"
           x="63.623047"
           id="use65" />
        <use
           xlink:href="#DejaVuSans-70"
           x="95.410156"
           id="use66" />
        <use
           xlink:href="#DejaVuSans-69"
           x="158.88672"
           id="use67" />
        <use
           xlink:href="#DejaVuSans-70"
           x="186.66992"
           id="use68" />
        <use
           xlink:href="#DejaVuSans-65"
           x="250.14648"
           id="use69" />
        <use
           xlink:href="#DejaVuSans-73"
           x="311.66992"
           id="use70" />
      </g>
    </g>
    <g
       id="line2d_27">
      <path
         d="m 66.6,69.248562 h 10 10"
         style="fill:none;stroke:#ff7f0e;stroke-width:1.5;stroke-linecap:square"
         id="path70" />
    </g>
    <g
       id="text_17">
      <!-- 3 pipes -->
      <g
         transform="matrix(0.1,0,0,-0.1,94.6,72.748562)"
         id="g77">
        <use
           xlink:href="#DejaVuSans-33"
           id="use71" />
        <use
           xlink:href="#DejaVuSans-20"
           x="63.623047"
           id="use72" />
        <use
           xlink:href="#DejaVuSans-70"
           x="95.410156"
           id="use73" />
        <use
           xlink:href="#DejaVuSans-69"
           x="158.88672"
           id="use74" />
        <use
           xlink:href="#DejaVuSans-70"
           x="186.66992"
           id="use75" />
        <use
           xlink:href="#DejaVuSans-65"
           x="250.14648"
           id="use76" />
        <use
           xlink:href="#DejaVuSans-73"
           x="311.66992"
           id="use77" />
      </g>
    </g>
    <g
       id="line2d_28">
      <path
         d="m 66.6,83.926688 h 10 10"
         style="fill:none;stroke:#2ca02c;stroke-width:1.5;stroke-linecap:square"
         id="path77" />
    </g>
    <g
       id="text_18">
      <!-- 4 pipes -->
      <g
         transform="matrix(0.1,0,0,-0.1,94.6,87.426688)"
         id="g84">
        <use
           xlink:href="#DejaVuSans-34"
           id="use78" />
        <use
           xlink:href="#DejaVuSans-20"
           x="63.623047"
           id="use79" />
        <use
           xlink:href="#DejaVuSans-70"
           x="95.410156"
           id="use80" />
        <use
           xlink:href="#DejaVuSans-69"
           x="158.88672"
           id="use81" />
        <use
           xlink:href="#DejaVuSans-70"
           x="186.66992"
           id="use82" />
        <use
           xlink:href="#DejaVuSans-65"
           x="250.14648"
           id="use83" />
        <use
           xlink:href="#DejaVuSans-73"
           x="311.66992"
           id="use84" />
      </g>
    </g>
    <g
       id="line2d_29">
      <path
         d="m 66.6,98.604812 h 10 10"
         style="fill:none;stroke:#d62728;stroke-width:1.5;stroke-linecap:square"
         id="path84" />
    </g>
    <g
       id="text_19">
      <!-- 5 pipes -->
      <g
         transform="matrix(0.1,0,0,-0.1,94.6,102.10481)"
         id="g91">
        <use
           xlink:href="#DejaVuSans-35"
           id="use85" />
        <use
           xlink:href="#DejaVuSans-20"
           x="63.623047"
           id="use86" />
        <use
           xlink:href="#DejaVuSans-70"
           x="95.410156"
           id="use87" />
        <use
           xlink:href="#DejaVuSans-69"
           x="158.88672"
           id="use88" />
        <use
           xlink:href="#DejaVuSans-70"
           x="186.66992"
           id="use89" />
        <use
           xlink:href="#DejaVuSans-65"
           x="250.14648"
           id="use90" />
        <use
           xlink:href="#DejaVuSans-73"
           x="311.66992"
           id="use91" />
      </g>
    </g>
    <g
       id="line2d_30">
      <path
         d="m 66.6,113.28294 h 10 10"
         style="fill:none;stroke:#9467bd;stroke-width:1.5;stroke-linecap:square"
         id="path91" />
    </g>
    <g
       id="text_20">
      <!-- 6 pipes -->
      <g
         transform="matrix(0.1,0,0,-0.1,94.6,116.78294)"
         id="g98">
        <defs
           id="defs91">
          <path
             id="DejaVuSans-36"
             d="m 2113,2584 q -425,0 -674,-291 -248,-290 -248,-796 0,-503 248,-796 249,-292 674,-292 425,0 673,292 248,293 248,796 0,506 -248,796 -248,291 -673,291 z m 1253,1979 v -575 q -238,112 -480,171 -242,60 -480,60 -625,0 -955,-422 -329,-422 -376,-1275 184,272 462,417 279,145 613,145 703,0 1111,-427 408,-426 408,-1160 0,-719 -425,-1154 -425,-434 -1131,-434 -810,0 -1238,620 -428,621 -428,1799 0,1106 525,1764 525,658 1409,658 238,0 480,-47 242,-47 505,-140 z"
             transform="scale(0.015625)" />
        </defs>
        <use
           xlink:href="#DejaVuSans-36"
           id="use92" />
        <use
           xlink:href="#DejaVuSans-20"
           x="63.623047"
           id="use93" />
        <use
           xlink:href="#DejaVuSans-70"
           x="95.410156"
           id="use94" />
        <use
           xlink:href="#DejaVuSans-69"
           x="158.88672"
           id="use95" />
        <use
           xlink:href="#DejaVuSans-70"
           x="186.66992"
           id="use96" />
        <use
           xlink:href="#DejaVuSans-65"
           x="250.14648"
           id="use97" />
        <use
           xlink:href="#DejaVuSans-73"
           x="311.66992"
           id="use98" />
      </g>
    </g>
    <g
       id="line2d_31">
      <path
         d="m 66.6,127.96106 h 10 10"
         style="fill:none;stroke:#8c564b;stroke-width:1.5;stroke-linecap:square"
         id="path98" />
    </g>
    <g
       id="text_21">
      <!-- 7 pipes -->
      <g
         transform="matrix(0.1,0,0,-0.1,94.6,131.46106)"
         id="g105">
        <use
           xlink:href="#DejaVuSans-37"
           id="use99" />
        <use
           xlink:href="#DejaVuSans-20"
           x="63.623047"
           id="use100" />
        <use
           xlink:href="#DejaVuSans-70"
           x="95.410156"
           id="use101" />
        <use
           xlink:href="#DejaVuSans-69"
           x="158.88672"
           id="use102" />
        <use
           xlink:href="#DejaVuSans-70"
           x="186.66992"
           id="use103" />
        <use
           xlink:href="#DejaVuSans-65"
           x="250.14648"
           id="use104" />
        <use
           xlink:href="#DejaVuSans-73"
           x="311.66992"
           id="use105" />
      </g>
    </g>
    <g
       id="line2d_32">
      <path
         d="m 66.6,142.63919 h 10 10"
         style="fill:none;stroke:#e377c2;stroke-width:1.5;stroke-linecap:square"
         id="path105" />
    </g>
    <g
       id="text_22">
      <!-- 8 pipes -->
      <g
         transform="matrix(0.1,0,0,-0.1,94.6,146.13919)"
         id="g112">
        <defs
           id="defs105">
          <path
             id="DejaVuSans-38"
             d="m 2034,2216 q -450,0 -708,-241 -257,-241 -257,-662 0,-422 257,-663 258,-241 708,-241 450,0 709,242 260,243 260,662 0,421 -258,662 -257,241 -711,241 z m -631,268 q -406,100 -633,378 -226,279 -226,679 0,559 398,884 399,325 1092,325 697,0 1094,-325 397,-325 397,-884 0,-400 -227,-679 -226,-278 -629,-378 456,-106 710,-416 255,-309 255,-755 Q 3634,634 3220,271 2806,-91 2034,-91 1263,-91 848,271 434,634 434,1313 q 0,446 256,755 257,310 713,416 z m -231,997 q 0,-362 226,-565 227,-203 636,-203 407,0 636,203 230,203 230,565 0,363 -230,566 -229,203 -636,203 -409,0 -636,-203 -226,-203 -226,-566 z"
             transform="scale(0.015625)" />
        </defs>
        <use
           xlink:href="#DejaVuSans-38"
           id="use106" />
        <use
           xlink:href="#DejaVuSans-20"
           x="63.623047"
           id="use107" />
        <use
           xlink:href="#DejaVuSans-70"
           x="95.410156"
           id="use108" />
        <use
           xlink:href="#DejaVuSans-69"
           x="158.88672"
           id="use109" />
        <use
           xlink:href="#DejaVuSans-70"
           x="186.66992"
           id="use110" />
        <use
           xlink:href="#DejaVuSans-65"
           x="250.14648"
           id="use111" />
        <use
           xlink:href="#DejaVuSans-73"
           x="311.66992"
           id="use112" />
      </g>
    </g>
    <g
       id="line2d_33">
      <path
         d="m 66.6,157.31731 h 10 10"
         style="fill:none;stroke:#7f7f7f;stroke-width:1.5;stroke-linecap:square"
         id="path112" />
    </g>
    <g
       id="text_23">
      <!-- 9 pipes -->
      <g
         transform="matrix(0.1,0,0,-0.1,94.6,160.81731)"
         id="g119">
        <defs
           id="defs112">
          <path
             id="DejaVuSans-39"
             d="m 703,97 v 575 q 238,-113 481,-172 244,-59 479,-59 625,0 954,420 330,420 377,1277 -181,-269 -460,-413 -278,-144 -615,-144 -700,0 -1108,423 -408,424 -408,1159 0,718 425,1152 425,435 1131,435 810,0 1236,-621 427,-620 427,-1801 Q 3622,1225 3098,567 2575,-91 1691,-91 1453,-91 1209,-44 966,3 703,97 Z m 1256,1978 q 425,0 673,290 249,291 249,798 0,503 -249,795 -248,292 -673,292 -425,0 -673,-292 -248,-292 -248,-795 0,-507 248,-798 248,-290 673,-290 z"
             transform="scale(0.015625)" />
        </defs>
        <use
           xlink:href="#DejaVuSans-39"
           id="use113" />
        <use
           xlink:href="#DejaVuSans-20"
           x="63.623047"
           id="use114" />
        <use
           xlink:href="#DejaVuSans-70"
           x="95.410156"
           id="use115" />
        <use
           xlink:href="#DejaVuSans-69"
           x="158.88672"
           id="use116" />
        <use
           xlink:href="#DejaVuSans-70"
           x="186.66992"
           id="use117" />
        <use
           xlink:href="#DejaVuSans-65"
           x="250.14648"
           id="use118" />
        <use
           xlink:href="#DejaVuSans-73"
           x="311.66992"
           id="use119" />
      </g>
    </g>
    <g
       id="line2d_34">
      <path
         d="m 66.6,171.99544 h 10 10"
         style="fill:none;stroke:#bcbd22;stroke-width:1.5;stroke-linecap:square"
         id="path119" />
    </g>
    <g
       id="text_24">
      <!-- 10 pipes -->
      <g
         transform="matrix(0.1,0,0,-0.1,94.6,175.49544)"
         id="g127">
        <use
           xlink:href="#DejaVuSans-31"
           id="use120" />
        <use
           xlink:href="#DejaVuSans-30"
           x="63.623047"
           id="use121" />
        <use
           xlink:href="#DejaVuSans-20"
           x="127.24609"
           id="use122" />
        <use
           xlink:href="#DejaVuSans-70"
           x="159.0332"
           id="use123" />
        <use
           xlink:href="#DejaVuSans-69"
           x="222.50977"
           id="use124" />
        <use
           xlink:href="#DejaVuSans-70"
           x="250.29297"
           id="use125" />
        <use
           xlink:href="#DejaVuSans-65"
           x="313.76953"
           id="use126" />
        <use
           xlink:href="#DejaVuSans-73"
           x="375.29297"
           id="use127" />
      </g>
    </g>
    <g
       id="line2d_35">
      <path
         d="m 66.6,186.67356 h 10 10"
         style="fill:none;stroke:#17becf;stroke-width:1.5;stroke-linecap:square"
         id="path127" />
    </g>
    <g
       id="text_25">
      <!-- 11 pipes -->
      <g
         transform="matrix(0.1,0,0,-0.1,94.6,190.17356)"
         id="g135">
        <use
           xlink:href="#DejaVuSans-31"
           id="use128" />
        <use
           xlink:href="#DejaVuSans-31"
           x="63.623047"
           id="use129" />
        <use
           xlink:href="#DejaVuSans-20"
           x="127.24609"
           id="use130" />
        <use
           xlink:href="#DejaVuSans-70"
           x="159.0332"
           id="use131" />
        <use
           xlink:href="#DejaVuSans-69"
           x="222.50977"
           id="use132" />
        <use
           xlink:href="#DejaVuSans-70"
           x="250.29297"
           id="use133" />
        <use
           xlink:href="#DejaVuSans-65"
           x="313.76953"
           id="use134" />
        <use
           xlink:href="#DejaVuSans-73"
           x="375.29297"
           id="use135" />
      </g>
    </g>
  </g>
  <defs
     id="defs135">
    <clipPath
       id="pf667071e66">
      <rect
         x="57.6"
         y="41.472"
         width="357.12"
         height="266.112"
         id="rect135" />
    </clipPath>
  </defs>
  <text
     xml:space="preserve"
     style="font-size:11px;line-height:normal;font-family:Calibri;-inkscape-font-specification:Calibri;text-align:center;text-decoration-color:#000000;text-anchor:middle;fill:#d0d0d0;stroke-width:1.33228;stroke-linejoin:round;stroke-dasharray:1.33228, 1.33228;paint-order:stroke markers fill"
     x="-172.74629"
     y="37.062939"
     id="text135"
     transform="rotate(-90)"><tspan
       sodipodi:role="line"
       id="tspan135"
       style="fill:#000000;fill-opacity:1;stroke-width:1.33228"
       x="-172.74629"
       y="37.062939">2*Flow (L/s)</tspan></text>
  <text
     xml:space="preserve"
     style="font-size:11px;line-height:normal;font-family:Calibri;-inkscape-font-specification:Calibri;text-align:center;text-decoration-color:#000000;text-anchor:middle;fill:#d0d0d0;stroke-width:1.33228;stroke-linejoin:round;stroke-dasharray:1.33228, 1.33228;paint-order:stroke markers fill"
     x="234.39323"
     y="318.89871"
     id="text136"><tspan
       sodipodi:role="line"
       id="tspan136"
       style="fill:#000000;fill-opacity:1;stroke-width:1.33228"
       x="234.39323"
       y="318.89871">pipe ticks (2 seconds)</tspan></text>
  <rect
     style="fill:none;fill-opacity:1;stroke:#000000;stroke-width:1.332;stroke-linejoin:round;stroke-dasharray:none;stroke-dashoffset:0;stroke-opacity:1;paint-order:stroke markers fill"
     id="rect136"
     width="32.168777"
     height="31.09161"
     x="166.48914"
     y="78.660805"
     ry="5.1144295" />
  <text
     xml:space="preserve"
     style="font-size:11px;line-height:normal;font-family:Calibri;-inkscape-font-specification:Calibri;text-align:center;text-decoration-color:#000000;text-anchor:middle;fill:#d0d0d0;stroke-width:1.33228;stroke-linejoin:round;stroke-dasharray:1.33228, 1.33228;paint-order:stroke markers fill"
     x="182.31033"
     y="97.681709"
     id="text137"><tspan
       sodipodi:role="line"
       id="tspan137"
       style="fill:#000000;fill-opacity:1;stroke-width:1.33228"
       x="182.31033"
       y="97.681709">LTS</tspan></text>
  <rect
     style="fill:none;fill-opacity:1;stroke:#000000;stroke-width:1.332;stroke-linejoin:round;stroke-dasharray:none;stroke-dashoffset:0;stroke-opacity:1;paint-order:stroke markers fill"
     id="rect137"
     width="32.168777"
     height="31.09161"
     x="259.34012"
     y="78.660805"
     ry="5.1144295" />
  <text
     xml:space="preserve"
     style="font-size:11px;line-height:normal;font-family:Calibri;-inkscape-font-specification:Calibri;text-align:center;text-decoration-color:#000000;text-anchor:middle;fill:#d0d0d0;stroke-width:1.33228;stroke-linejoin:round;stroke-dasharray:1.33228, 1.33228;paint-order:stroke markers fill"
     x="275.16132"
     y="97.681709"
     id="text138"><tspan
       sodipodi:role="line"
       id="tspan138"
       style="fill:#000000;fill-opacity:1;stroke-width:1.33228"
       x="275.16132"
       y="97.681709">LTS</tspan></text>
  <text
     xml:space="preserve"
     style="font-size:11px;line-height:normal;font-family:Calibri;-inkscape-font-specification:Calibri;text-align:center;text-decoration-color:#000000;text-anchor:middle;fill:#d0d0d0;stroke-width:1.33228;stroke-linejoin:round;stroke-dasharray:1.33228, 1.33228;paint-order:stroke markers fill"
     x="228.81102"
     y="88.112068"
     id="text139"><tspan
       sodipodi:role="line"
       id="tspan139"
       style="fill:#000000;fill-opacity:1;stroke-width:1.33228"
       x="228.81102"
       y="88.112068">n_pipes</tspan></text>
  <path
     style="fill:none;fill-opacity:1;stroke:#000000;stroke-width:1.332;stroke-linejoin:round;stroke-dasharray:none;stroke-dashoffset:0;stroke-opacity:1;paint-order:stroke markers fill"
     d="m 198.65791,94.206608 h 60.68221"
     id="path139" />
  <text
     xml:space="preserve"
     style="font-size:11px;line-height:normal;font-family:Calibri;-inkscape-font-specification:Calibri;text-align:center;text-decoration-color:#000000;text-anchor:middle;fill:#d0d0d0;stroke-width:1.33228;stroke-linejoin:round;stroke-dasharray:1.33228, 1.33228;paint-order:stroke markers fill"
     x="247.54106"
     y="20.192495"
     id="text140"><tspan
       sodipodi:role="line"
       id="tspan140"
       style="fill:#000000;fill-opacity:1;stroke-width:1.33228"
       x="247.54106"
       y="20.192495">Pipe flow rates between LTS when pipes start empty</tspan></text>
</svg>
